<svg xmlns="http://www.w3.org/2000/svg" xmlns:xlink="http://www.w3.org/1999/xlink" viewBox="0 0 58 64" version="1.1" x="0px" y="0px"><title>Dollar Coin</title><desc>Created with Sketch.</desc><g stroke="none" stroke-width="1" fill="none" fill-rule="evenodd"><g transform="translate(-215.000000, -164.000000)" fill="#000000"><path d="M249,198 C249,199.932 247.279,201.547 245,201.919 L245,194.081 C247.279,194.453 249,196.068 249,198 L249,198 Z M243,191.919 C240.721,191.547 239,189.932 239,188 C239,186.068 240.721,184.453 243,184.081 L243,191.919 Z M249,188 C249,188.552 249.448,189 250,189 C250.552,189 251,188.552 251,188 C251,184.984 248.387,182.487 245,182.068 L245,181 C245,180.448 244.552,180 244,180 C243.448,180 243,180.448 243,181 L243,182.068 C239.613,182.487 237,184.984 237,188 C237,191.016 239.613,193.513 243,193.932 L243,201.919 C240.721,201.547 239,199.932 239,198 C239,197.448 238.552,197 238,197 C237.448,197 237,197.448 237,198 C237,201.016 239.613,203.513 243,203.932 L243,205 C243,205.552 243.448,206 244,206 C244.552,206 245,205.552 245,205 L245,203.932 C248.387,203.513 251,201.016 251,198 C251,194.984 248.387,192.487 245,192.068 L245,184.081 C247.279,184.453 249,186.068 249,188 L249,188 Z M244,214 C232.421,214 223,204.579 223,193 C223,181.421 232.421,172 244,172 C255.579,172 265,181.421 265,193 C265,204.579 255.579,214 244,214 L244,214 Z M244,170 C231.297,170 221,180.297 221,193 C221,205.703 231.297,216 244,216 C256.703,216 267,205.703 267,193 C267,180.297 256.703,170 244,170 L244,170 Z M244,220 C229.112,220 217,207.888 217,193 C217,178.112 229.112,166 244,166 C258.888,166 271,178.112 271,193 C271,207.888 258.888,220 244,220 L244,220 Z M269,209.183 L269,207.692 C269.446,206.936 269.859,206.159 270.236,205.36 C269.918,206.675 269.504,207.951 269,209.183 L269,209.183 Z M268,211.345 C267.154,212.982 266.149,214.523 265,215.944 L265,212.988 C266.096,211.837 267.103,210.6 268,209.281 L268,211.345 Z M264,217.119 C262.791,218.452 261.45,219.661 260,220.732 L260,217.185 C261.428,216.238 262.765,215.166 264,213.989 L264,217.119 Z M259,221.437 C257.738,222.284 256.399,223.021 255,223.648 L255,219.835 C256.39,219.264 257.728,218.593 259,217.823 L259,221.437 Z M254,224.072 C252.712,224.588 251.376,225.006 250,225.32 L250,221.375 C251.371,221.086 252.708,220.704 254,220.229 L254,224.072 Z M249,225.528 C247.697,225.773 246.361,225.925 245,225.975 L245,221.975 C246.359,221.929 247.694,221.789 249,221.562 L249,225.528 Z M244,226 C242.641,226 241.306,225.897 240,225.702 L240,221.719 C241.308,221.899 242.642,222 244,222 L244,226 Z M239,225.528 C237.628,225.27 236.291,224.91 235,224.452 L235,220.569 C236.296,220.992 237.631,221.324 239,221.562 L239,225.528 Z M234,224.072 C232.607,223.515 231.268,222.851 230,222.079 L230,218.398 C231.278,219.104 232.613,219.719 234,220.229 L234,224.072 Z M229,221.437 C227.563,220.474 226.224,219.376 225,218.162 L225,214.898 C226.246,215.981 227.581,216.964 229,217.823 L229,221.437 Z M224,214 L224,217.119 C222.882,215.885 221.878,214.547 221,213.123 L221,210.655 C221.917,211.847 222.924,212.965 224.012,214 L224,214 Z M220,211.345 C219.03,209.467 218.273,207.462 217.764,205.36 C218.41,206.729 219.157,208.04 220,209.281 L220,211.345 Z M244,164 C227.984,164 215,176.984 215,193 L215,199 C215,207.26 218.459,214.707 224,219.989 L224,220 L224.012,220 C229.215,224.953 236.249,228 244,228 C260.016,228 273,215.016 273,199 L273,193 C273,176.984 260.016,164 244,164 L244,164 Z"></path></g></g></svg>